<svg xmlns="http://www.w3.org/2000/svg" width="260.667" height="273" viewBox="0 0 260.667 273">
  <g id="Group_39" data-name="Group 39" transform="translate(-306.333 -2614.891)">
    <g id="Group_3" data-name="Group 3" transform="translate(306.333 2614.891)">
      <path id="Path_4" data-name="Path 4" d="M-949.264,1954.17a87.69,87.69,0,0,1-12.321,42.651,105.492,105.492,0,0,1-13.687,18.387c-.221.237-.422.46-.643.7-.6.638-1.226,1.261-1.849,1.885-.02.015-.04.045-.061.059-.039.045-.08.074-.12.119A131.823,131.823,0,0,1-994.99,2032.5a162.764,162.764,0,0,1-49.022,23.418,184.551,184.551,0,0,1-28.058,5.951,215.193,215.193,0,0,1-29.023,1.8,212.051,212.051,0,0,0,28.862-2.434,181.832,181.832,0,0,0,27.556-6.515,156.563,156.563,0,0,0,47.213-24.056,126.855,126.855,0,0,0,16.884-15.463c.341-.356.683-.728,1-1.083.563-.638,1.106-1.291,1.648-1.945a97.963,97.963,0,0,0,11.457-16.829,83.024,83.024,0,0,0,10.17-41.166,83.225,83.225,0,0,0-11.818-40.663,96.656,96.656,0,0,0-9.748-13.787c-1.246-1.484-2.553-2.953-3.9-4.408-.643-.667-1.286-1.335-1.93-1.989a130.12,130.12,0,0,0-16.3-13.8,153.729,153.729,0,0,0-46.69-22.32,188.1,188.1,0,0,0-54.408-7.346h-.1c-3.88.03-7.055-2.285-7.095-5.149-.02-2.879,3.115-5.224,6.994-5.239h.2c20.3.342,40.58,3.31,59.111,9.35,18.571,5.906,35.515,14.5,49.463,25.2a134.721,134.721,0,0,1,14.592,12.852c1.447,1.469,2.854,2.953,4.2,4.467.563.653,1.126,1.306,1.648,1.959a104,104,0,0,1,12.1,17.719A87.022,87.022,0,0,1-949.264,1954.17Z" transform="translate(1108.288 -1790.678)" fill="#76c940"/>
      <path id="Path_5" data-name="Path 5" d="M-833.432,1844.589c.06,2.879-3.055,5.224-6.935,5.268h-.22c-25.788-.3-51.675,4.734-74.106,14.44a145.336,145.336,0,0,0-30.531,17.853c-1.106.876-2.291,1.707-3.356,2.627l-3.176,2.746c-2.191,1.781-4.06,3.8-6.07,5.714-.02.015-.04.044-.06.059a28.885,28.885,0,0,0-2.693,2.85l-2.653,3.072-.442.5-2.211,2.568c-.844,1.054-1.628,2.107-2.411,3.175-12.462,17.008-18.351,36.7-16.863,56.2,1.246,17.735,8.663,35.276,21.426,50.5.844,1.024,1.729,2.048,2.653,3.042.383.46.8.92,1.227,1.365a1.374,1.374,0,0,1,.141.148c13.164,14.1,30.973,25.882,51.574,34.03a190.526,190.526,0,0,0,67.553,12.911,193.819,193.819,0,0,1-68.539-11.5c-21.264-7.821-40-19.456-54.146-33.688v-.015l-.02-.015-.282-.653-.1-.238a.809.809,0,0,0,.039.3,1.628,1.628,0,0,0,.3.564l-.422-.445c-.9-.905-1.788-1.84-2.633-2.775-14.472-15.657-23.355-34.163-25.486-53.189-2.372-20.346,2.894-41.242,15.436-59.674.785-1.142,1.588-2.285,2.412-3.4l2.673-3.31,1.849-2.3.8-1.009a41.6,41.6,0,0,1,2.914-3.295c.7-.712,1.386-1.425,2.05-2.152,1.327-1.38,2.653-2.746,4.14-4.052l3.3-3.013c1.1-.994,2.311-1.929,3.477-2.894a152.387,152.387,0,0,1,32.079-19.931c23.8-11.056,51.835-17.215,80.156-17.512h.02C-836.688,1839.424-833.492,1841.724-833.432,1844.589Z" transform="translate(1094.098 -1790.678)" fill="#76c940"/>
      <circle id="Ellipse_2" data-name="Ellipse 2" cx="28.92" cy="28.92" r="28.92" transform="translate(101.439)" fill="#76c940"/>
    </g>
  </g>
</svg>
